<svg xmlns="http://www.w3.org/2000/svg" xmlns:xlink="http://www.w3.org/1999/xlink" width="500" zoomAndPan="magnify" viewBox="0 0 375 374.999991" height="500" preserveAspectRatio="xMidYMid meet" version="1.0"><defs><g/><clipPath id="54c6f22b93"><path d="M 9.699219 91.449219 L 365.300781 91.449219 L 365.300781 283.550781 L 9.699219 283.550781 Z M 9.699219 91.449219 " clip-rule="nonzero"/></clipPath><clipPath id="dd005f7eac"><path d="M 0.699219 0.449219 L 356.300781 0.449219 L 356.300781 192.550781 L 0.699219 192.550781 Z M 0.699219 0.449219 " clip-rule="nonzero"/></clipPath><clipPath id="f1f1547292"><rect x="0" width="357" y="0" height="193"/></clipPath><clipPath id="bd1dec8112"><path d="M 9.703125 91.449219 L 365.199219 91.449219 L 365.199219 283.449219 L 9.703125 283.449219 Z M 9.703125 91.449219 " clip-rule="nonzero"/></clipPath><clipPath id="067c656ad2"><rect x="0" width="283" y="0" height="191"/></clipPath></defs><g clip-path="url(#54c6f22b93)"><g transform="matrix(1, 0, 0, 1, 9, 91)"><g clip-path="url(#f1f1547292)"><g clip-path="url(#dd005f7eac)"><path fill="#d42b1e" d="M 0.699219 0.449219 L 356.386719 0.449219 L 356.386719 192.550781 L 0.699219 192.550781 Z M 0.699219 0.449219 " fill-opacity="1" fill-rule="nonzero"/></g></g></g></g><g clip-path="url(#bd1dec8112)"><path stroke-linecap="butt" transform="matrix(0.75, 0, 0, 0.75, 9.703884, 91.449536)" fill="none" stroke-linejoin="miter" d="M -0.00101235 -0.000423526 L 474.113602 -0.000423526 L 474.113602 256.124593 L -0.00101235 256.124593 Z M -0.00101235 -0.000423526 " stroke="#000000" stroke-width="20" stroke-opacity="1" stroke-miterlimit="4"/></g><g transform="matrix(1, 0, 0, 1, 46, 92)"><g clip-path="url(#067c656ad2)"><g fill="#ffffff" fill-opacity="1"><g transform="translate(1.070898, 152.842368)"><g><path d="M 12.953125 0 L 12.953125 -17 L 36.96875 -17 L 36.96875 -95.328125 L 12.953125 -95.328125 L 12.953125 -112.328125 L 80.65625 -112.328125 L 80.65625 -95.328125 L 56.640625 -95.328125 L 56.640625 -17 L 80.65625 -17 L 80.65625 0 Z M 12.953125 0 "/></g></g></g><g fill="#ffffff" fill-opacity="1"><g transform="translate(94.682802, 152.842368)"><g><path d="M 31.359375 -112.328125 L 31.359375 -66.78125 L 45.71875 -66.78125 L 67.25 -112.328125 L 88.921875 -112.328125 L 62.875 -58.5 L 90.171875 0 L 68.171875 0 L 45.71875 -49.140625 L 31.359375 -49.140625 L 31.359375 0 L 11.703125 0 L 11.703125 -112.328125 Z M 31.359375 -112.328125 "/></g></g></g><g fill="#ffffff" fill-opacity="1"><g transform="translate(188.294706, 152.842368)"><g><path d="M 12.953125 0 L 12.953125 -17 L 36.96875 -17 L 36.96875 -95.328125 L 12.953125 -95.328125 L 12.953125 -112.328125 L 80.65625 -112.328125 L 80.65625 -95.328125 L 56.640625 -95.328125 L 56.640625 -17 L 80.65625 -17 L 80.65625 0 Z M 12.953125 0 "/></g></g></g></g></g></svg>