<svg xmlns="http://www.w3.org/2000/svg" xmlns:xlink="http://www.w3.org/1999/xlink" width="500" zoomAndPan="magnify" viewBox="0 0 375 374.999991" height="500" preserveAspectRatio="xMidYMid meet" version="1.0"><defs><g/><clipPath id="53fecda0bf"><path d="M 64.507812 56.007812 L 310.492188 56.007812 L 310.492188 187.484375 L 64.507812 187.484375 Z M 64.507812 56.007812 " clip-rule="nonzero"/></clipPath><clipPath id="9389c9c400"><path d="M 0.507812 0.0078125 L 246.492188 0.0078125 L 246.492188 131.484375 L 0.507812 131.484375 Z M 0.507812 0.0078125 " clip-rule="nonzero"/></clipPath><clipPath id="c755872e98"><rect x="0" width="247" y="0" height="132"/></clipPath><clipPath id="5d40ea390c"><path d="M 62.15625 183.863281 L 312.84375 183.863281 L 312.84375 319.289062 L 62.15625 319.289062 Z M 62.15625 183.863281 " clip-rule="nonzero"/></clipPath><clipPath id="c8e70b8dde"><path d="M 0.15625 0.863281 L 250.84375 0.863281 L 250.84375 136.289062 L 0.15625 136.289062 Z M 0.15625 0.863281 " clip-rule="nonzero"/></clipPath><clipPath id="197a5c9c8d"><rect x="0" width="251" y="0" height="137"/></clipPath><clipPath id="a9c869f93c"><path d="M 62.15625 183.863281 L 312.65625 183.863281 L 312.65625 319.285156 L 62.15625 319.285156 Z M 62.15625 183.863281 " clip-rule="nonzero"/></clipPath><clipPath id="45bd586689"><path d="M 62.15625 54.214844 L 312.65625 54.214844 L 312.65625 189.632812 L 62.15625 189.632812 Z M 62.15625 54.214844 " clip-rule="nonzero"/></clipPath><clipPath id="b37e38d2ee"><rect x="0" width="201" y="0" height="135"/></clipPath><clipPath id="94b663b066"><rect x="0" width="201" y="0" height="135"/></clipPath></defs><g clip-path="url(#53fecda0bf)"><g transform="matrix(1, 0, 0, 1, 64, 56)"><g clip-path="url(#c755872e98)"><g clip-path="url(#9389c9c400)"><path fill="#d42b1e" d="M 0.507812 0.0078125 L 246.515625 0.0078125 L 246.515625 131.484375 L 0.507812 131.484375 Z M 0.507812 0.0078125 " fill-opacity="1" fill-rule="nonzero"/></g></g></g></g><g clip-path="url(#5d40ea390c)"><g transform="matrix(1, 0, 0, 1, 62, 183)"><g clip-path="url(#197a5c9c8d)"><g clip-path="url(#c8e70b8dde)"><path fill="#ffffff" d="M 0.15625 0.863281 L 250.902344 0.863281 L 250.902344 136.289062 L 0.15625 136.289062 Z M 0.15625 0.863281 " fill-opacity="1" fill-rule="nonzero"/></g></g></g></g><g clip-path="url(#a9c869f93c)"><path stroke-linecap="butt" transform="matrix(0.75, 0, 0, 0.75, 62.158066, 183.863909)" fill="none" stroke-linejoin="miter" d="M -0.00242136 -0.000836635 L 334.231976 -0.000836635 L 334.231976 180.561675 L -0.00242136 180.561675 Z M -0.00242136 -0.000836635 " stroke="#000000" stroke-width="16" stroke-opacity="1" stroke-miterlimit="4"/></g><g clip-path="url(#45bd586689)"><path stroke-linecap="butt" transform="matrix(0.75, 0, 0, 0.75, 62.158066, 54.21244)" fill="none" stroke-linejoin="miter" d="M -0.00242136 0.00320548 L 334.231976 0.00320548 L 334.231976 180.560509 L -0.00242136 180.560509 Z M -0.00242136 0.00320548 " stroke="#000000" stroke-width="16" stroke-opacity="1" stroke-miterlimit="4"/></g><g transform="matrix(1, 0, 0, 1, 87, 54)"><g clip-path="url(#b37e38d2ee)"><g fill="#ffffff" fill-opacity="1"><g transform="translate(1.499711, 108.34841)"><g><path d="M 9.125 0 L 9.125 -11.984375 L 26.0625 -11.984375 L 26.0625 -67.203125 L 9.125 -67.203125 L 9.125 -79.1875 L 56.859375 -79.1875 L 56.859375 -67.203125 L 39.921875 -67.203125 L 39.921875 -11.984375 L 56.859375 -11.984375 L 56.859375 0 Z M 9.125 0 "/></g></g></g><g fill="#ffffff" fill-opacity="1"><g transform="translate(67.492457, 108.34841)"><g><path d="M 22.109375 -79.1875 L 22.109375 -47.078125 L 32.21875 -47.078125 L 47.40625 -79.1875 L 62.6875 -79.1875 L 44.328125 -41.25 L 63.578125 0 L 48.0625 0 L 32.21875 -34.640625 L 22.109375 -34.640625 L 22.109375 0 L 8.25 0 L 8.25 -79.1875 Z M 22.109375 -79.1875 "/></g></g></g><g fill="#ffffff" fill-opacity="1"><g transform="translate(133.485203, 108.34841)"><g><path d="M 9.125 0 L 9.125 -11.984375 L 26.0625 -11.984375 L 26.0625 -67.203125 L 9.125 -67.203125 L 9.125 -79.1875 L 56.859375 -79.1875 L 56.859375 -67.203125 L 39.921875 -67.203125 L 39.921875 -11.984375 L 56.859375 -11.984375 L 56.859375 0 Z M 9.125 0 "/></g></g></g></g></g><g transform="matrix(1, 0, 0, 1, 87, 185)"><g clip-path="url(#94b663b066)"><g fill="#000000" fill-opacity="1"><g transform="translate(1.499711, 107.929217)"><g><path d="M 24.640625 -79.1875 L 24.640625 -12.765625 L 59.171875 -12.765625 L 59.171875 0 L 10.890625 0 L 10.890625 -79.1875 Z M 24.640625 -79.1875 "/></g></g></g><g fill="#000000" fill-opacity="1"><g transform="translate(67.492457, 107.929217)"><g><path d="M 2.640625 0 L 23.984375 -79.1875 L 42.5625 -79.1875 L 63.34375 0 L 49.15625 0 L 44.4375 -19.90625 L 21.453125 -19.90625 L 16.71875 0 Z M 24.09375 -30.796875 L 41.796875 -30.796875 L 35.078125 -59.0625 C 34.785156 -60.382812 34.507812 -61.703125 34.25 -63.015625 C 34 -64.335938 33.800781 -65.515625 33.65625 -66.546875 C 33.507812 -67.710938 33.363281 -68.882812 33.21875 -70.0625 L 32.671875 -70.0625 C 32.523438 -68.882812 32.375 -67.710938 32.21875 -66.546875 C 32.070312 -65.515625 31.890625 -64.335938 31.671875 -63.015625 C 31.453125 -61.703125 31.160156 -60.382812 30.796875 -59.0625 Z M 24.09375 -30.796875 "/></g></g></g><g fill="#000000" fill-opacity="1"><g transform="translate(133.485203, 107.929217)"><g><path d="M 8.140625 0 L 8.140625 -79.1875 L 33.328125 -79.1875 C 41.242188 -79.1875 47.472656 -77.351562 52.015625 -73.6875 C 56.566406 -70.019531 58.84375 -65.035156 58.84375 -58.734375 C 58.84375 -53.890625 57.484375 -49.960938 54.765625 -46.953125 C 52.054688 -43.953125 48.394531 -42.269531 43.78125 -41.90625 L 43.78125 -40.921875 C 48.90625 -40.546875 52.929688 -38.742188 55.859375 -35.515625 C 58.796875 -32.296875 60.265625 -28.046875 60.265625 -22.765625 C 60.265625 -19.242188 59.660156 -16.085938 58.453125 -13.296875 C 57.242188 -10.515625 55.519531 -8.132812 53.28125 -6.15625 C 51.050781 -4.175781 48.320312 -2.65625 45.09375 -1.59375 C 41.863281 -0.53125 38.234375 0 34.203125 0 Z M 21.5625 -35.1875 L 21.5625 -11.4375 L 33.328125 -11.4375 C 37.429688 -11.4375 40.617188 -12.476562 42.890625 -14.5625 C 45.160156 -16.65625 46.296875 -19.570312 46.296875 -23.3125 C 46.296875 -27.050781 45.160156 -29.960938 42.890625 -32.046875 C 40.617188 -34.140625 37.429688 -35.1875 33.328125 -35.1875 Z M 21.5625 -67.75 L 21.5625 -46.515625 L 33.109375 -46.515625 C 36.703125 -46.515625 39.5625 -47.46875 41.6875 -49.375 C 43.8125 -51.289062 44.875 -53.894531 44.875 -57.1875 C 44.875 -60.488281 43.828125 -63.070312 41.734375 -64.9375 C 39.648438 -66.8125 36.8125 -67.75 33.21875 -67.75 Z M 21.5625 -67.75 "/></g></g></g></g></g></svg>