<svg xmlns="http://www.w3.org/2000/svg" xmlns:xlink="http://www.w3.org/1999/xlink" width="1500" zoomAndPan="magnify" viewBox="0 0 1125 374.999991" height="500" preserveAspectRatio="xMidYMid meet" version="1.0"><defs><g/><clipPath id="19848609f6"><path d="M 13.503906 12.988281 L 530.003906 12.988281 L 530.003906 292.011719 L 13.503906 292.011719 Z M 13.503906 12.988281 " clip-rule="nonzero"/></clipPath><clipPath id="79a286dd6b"><path d="M 0.503906 0.988281 L 517.003906 0.988281 L 517.003906 280.011719 L 0.503906 280.011719 Z M 0.503906 0.988281 " clip-rule="nonzero"/></clipPath><clipPath id="ad59382f40"><rect x="0" width="518" y="0" height="281"/></clipPath><clipPath id="c210e48477"><path d="M 13.507812 12.988281 L 529.863281 12.988281 L 529.863281 291.882812 L 13.507812 291.882812 Z M 13.507812 12.988281 " clip-rule="nonzero"/></clipPath><clipPath id="26d2967f75"><rect x="0" width="412" y="0" height="278"/></clipPath><clipPath id="a18ced1973"><path d="M 522.996094 12.988281 L 1039.496094 12.988281 L 1039.496094 292.011719 L 522.996094 292.011719 Z M 522.996094 12.988281 " clip-rule="nonzero"/></clipPath><clipPath id="1717a78971"><path d="M 0.996094 0.988281 L 517.496094 0.988281 L 517.496094 280.011719 L 0.996094 280.011719 Z M 0.996094 0.988281 " clip-rule="nonzero"/></clipPath><clipPath id="01d0aa5221"><rect x="0" width="518" y="0" height="281"/></clipPath><clipPath id="431bb51c4c"><path d="M 523 12.988281 L 1039.355469 12.988281 L 1039.355469 291.882812 L 523 291.882812 Z M 523 12.988281 " clip-rule="nonzero"/></clipPath><clipPath id="86625467e0"><rect x="0" width="411" y="0" height="277"/></clipPath><clipPath id="fc7f9ef4b7"><rect x="0" width="1053" y="0" height="306"/></clipPath></defs><g transform="matrix(1, 0, 0, 1, 36, 35)"><g clip-path="url(#fc7f9ef4b7)"><g clip-path="url(#19848609f6)"><g transform="matrix(1, 0, 0, 1, 13, 12)"><g clip-path="url(#ad59382f40)"><g clip-path="url(#79a286dd6b)"><path fill="#d42b1e" d="M 0.503906 0.988281 L 517.128906 0.988281 L 517.128906 280.011719 L 0.503906 280.011719 Z M 0.503906 0.988281 " fill-opacity="1" fill-rule="nonzero"/></g></g></g></g><g clip-path="url(#c210e48477)"><path stroke-linecap="butt" transform="matrix(0.739765, 0, 0, 0.739765, 13.506152, 12.98986)" fill="none" stroke-linejoin="miter" d="M 0.00224516 -0.00213441 L 698.186352 -0.00213441 L 698.186352 377.171048 L 0.00224516 377.171048 Z M 0.00224516 -0.00213441 " stroke="#000000" stroke-width="8.110683" stroke-opacity="1" stroke-miterlimit="4"/></g><g transform="matrix(1, 0, 0, 1, 66, 13)"><g clip-path="url(#26d2967f75)"><g fill="#ffffff" fill-opacity="1"><g transform="translate(1.778657, 222.787945)"><g><path d="M 18.8125 0 L 18.8125 -24.703125 L 53.703125 -24.703125 L 53.703125 -138.46875 L 18.8125 -138.46875 L 18.8125 -163.171875 L 117.171875 -163.171875 L 117.171875 -138.46875 L 82.265625 -138.46875 L 82.265625 -24.703125 L 117.171875 -24.703125 L 117.171875 0 Z M 18.8125 0 "/></g></g></g><g fill="#ffffff" fill-opacity="1"><g transform="translate(137.746895, 222.787945)"><g><path d="M 45.546875 -163.171875 L 45.546875 -97 L 66.40625 -97 L 97.671875 -163.171875 L 129.171875 -163.171875 L 91.328125 -84.984375 L 130.984375 0 L 99.03125 0 L 66.40625 -71.390625 L 45.546875 -71.390625 L 45.546875 0 L 17 0 L 17 -163.171875 Z M 45.546875 -163.171875 "/></g></g></g><g fill="#ffffff" fill-opacity="1"><g transform="translate(273.715134, 222.787945)"><g><path d="M 18.8125 0 L 18.8125 -24.703125 L 53.703125 -24.703125 L 53.703125 -138.46875 L 18.8125 -138.46875 L 18.8125 -163.171875 L 117.171875 -163.171875 L 117.171875 -138.46875 L 82.265625 -138.46875 L 82.265625 -24.703125 L 117.171875 -24.703125 L 117.171875 0 Z M 18.8125 0 "/></g></g></g></g></g><g clip-path="url(#a18ced1973)"><g transform="matrix(1, 0, 0, 1, 522, 12)"><g clip-path="url(#01d0aa5221)"><g clip-path="url(#1717a78971)"><path fill="#ffffff" d="M 0.996094 0.988281 L 517.621094 0.988281 L 517.621094 280.011719 L 0.996094 280.011719 Z M 0.996094 0.988281 " fill-opacity="1" fill-rule="nonzero"/></g></g></g></g><g clip-path="url(#431bb51c4c)"><path stroke-linecap="butt" transform="matrix(0.739765, 0, 0, 0.739765, 522.998185, 12.98986)" fill="none" stroke-linejoin="miter" d="M 0.00245376 -0.00213441 L 698.18656 -0.00213441 L 698.18656 377.171048 L 0.00245376 377.171048 Z M 0.00245376 -0.00213441 " stroke="#000000" stroke-width="8.110683" stroke-opacity="1" stroke-miterlimit="4"/></g><g transform="matrix(1, 0, 0, 1, 576, 14)"><g clip-path="url(#86625467e0)"><g fill="#000000" fill-opacity="1"><g transform="translate(1.270676, 222.157466)"><g><path d="M 50.765625 -163.171875 L 50.765625 -26.28125 L 121.921875 -26.28125 L 121.921875 0 L 22.4375 0 L 22.4375 -163.171875 Z M 50.765625 -163.171875 "/></g></g></g><g fill="#000000" fill-opacity="1"><g transform="translate(137.238914, 222.157466)"><g><path d="M 5.4375 0 L 49.40625 -163.171875 L 87.703125 -163.171875 L 130.53125 0 L 101.296875 0 L 91.5625 -41.015625 L 44.1875 -41.015625 L 34.453125 0 Z M 49.625 -63.453125 L 86.125 -63.453125 L 72.296875 -121.703125 C 71.691406 -124.421875 71.125 -127.140625 70.59375 -129.859375 C 70.0625 -132.578125 69.644531 -134.992188 69.34375 -137.109375 C 69.039062 -139.523438 68.738281 -141.941406 68.4375 -144.359375 L 67.3125 -144.359375 C 67.007812 -141.941406 66.707031 -139.523438 66.40625 -137.109375 C 66.101562 -134.992188 65.722656 -132.578125 65.265625 -129.859375 C 64.816406 -127.140625 64.210938 -124.421875 63.453125 -121.703125 Z M 49.625 -63.453125 "/></g></g></g><g fill="#000000" fill-opacity="1"><g transform="translate(273.207152, 222.157466)"><g><path d="M 16.765625 0 L 16.765625 -163.171875 L 68.671875 -163.171875 C 84.984375 -163.171875 97.820312 -159.390625 107.1875 -151.828125 C 116.5625 -144.273438 121.25 -134.003906 121.25 -121.015625 C 121.25 -111.046875 118.453125 -102.960938 112.859375 -96.765625 C 107.265625 -90.578125 99.710938 -87.101562 90.203125 -86.34375 L 90.203125 -84.296875 C 100.773438 -83.546875 109.082031 -79.847656 115.125 -73.203125 C 121.164062 -66.554688 124.1875 -57.789062 124.1875 -46.90625 C 124.1875 -39.65625 122.941406 -33.160156 120.453125 -27.421875 C 117.960938 -21.679688 114.410156 -16.769531 109.796875 -12.6875 C 105.191406 -8.613281 99.5625 -5.476562 92.90625 -3.28125 C 86.257812 -1.09375 78.785156 0 70.484375 0 Z M 44.421875 -72.515625 L 44.421875 -23.5625 L 68.671875 -23.5625 C 77.128906 -23.5625 83.695312 -25.710938 88.375 -30.015625 C 93.0625 -34.328125 95.40625 -40.335938 95.40625 -48.046875 C 95.40625 -55.753906 93.0625 -61.757812 88.375 -66.0625 C 83.695312 -70.363281 77.128906 -72.515625 68.671875 -72.515625 Z M 44.421875 -139.59375 L 44.421875 -95.859375 L 68.21875 -95.859375 C 75.613281 -95.859375 81.503906 -97.820312 85.890625 -101.75 C 90.273438 -105.675781 92.46875 -111.039062 92.46875 -117.84375 C 92.46875 -124.644531 90.3125 -129.96875 86 -133.8125 C 81.695312 -137.664062 75.84375 -139.59375 68.4375 -139.59375 Z M 44.421875 -139.59375 "/></g></g></g></g></g></g></g></svg>